<?xml version="1.0" standalone="no"?>
<!DOCTYPE svg PUBLIC "-//W3C//DTD SVG 20010904//EN"
 "http://www.w3.org/TR/2001/REC-SVG-20010904/DTD/svg10.dtd">
<svg version="1.0" xmlns="http://www.w3.org/2000/svg"
 width="260.000000pt" height="260.000000pt" viewBox="0 0 260.000000 260.000000"
 preserveAspectRatio="xMidYMid meet">
<metadata>
Created by potrace 1.11, written by Peter Selinger 2001-2013
</metadata>
<g transform="translate(0.000000,260.000000) scale(0.100000,-0.100000)"
fill="#000000" stroke="none">
<path d="M1100 2584 c-330 -51 -652 -244 -838 -504 -26 -36 -50 -66 -54 -68
-5 -2 -8 -7 -8 -12 0 -4 -17 -39 -39 -77 -110 -195 -162 -412 -156 -653 3
-145 20 -247 61 -374 126 -389 439 -703 829 -831 137 -44 230 -59 385 -59 189
-1 268 10 420 59 98 31 285 119 310 145 3 3 30 23 60 44 145 103 283 262 377
436 54 99 116 273 128 360 3 19 9 62 14 95 13 83 6 304 -13 400 -62 314 -232
590 -483 784 -44 34 -84 61 -91 61 -7 0 -12 4 -12 8 0 13 -199 108 -285 136
-45 15 -117 33 -160 42 -112 22 -328 26 -445 8z"/>
</g>
</svg>
