<svg width="385" height="139" viewBox="0 0 385 139" fill="none" xmlns="http://www.w3.org/2000/svg">
<circle cx="369.357" cy="88.8327" r="15.5847" fill="#7952B3"/>
<path d="M31.6058 92.8439C34.037 92.8439 35.9695 91.8465 37.4033 89.8517C38.8371 87.7945 39.554 84.7399 39.554 80.6879C39.554 72.5838 36.9046 68.5318 31.6058 68.5318C29.4862 68.5318 27.6161 69.2487 25.9953 70.6825C24.4368 72.1163 23.6576 73.7371 23.6576 75.5449V85.8308C23.6576 87.6386 24.4368 89.2595 25.9953 90.6932C27.6161 92.127 29.4862 92.8439 31.6058 92.8439ZM38.1513 55.4407C43.8865 55.4407 48.4372 57.6225 51.8035 61.9862C55.1698 66.2876 56.853 72.5215 56.853 80.6879C56.853 88.6672 55.0763 94.8699 51.523 99.296C48.032 103.722 43.5748 105.935 38.1513 105.935C32.1668 105.935 27.242 103.597 23.377 98.922C23.3147 98.8596 23.2524 98.8285 23.19 98.8285C23.1277 98.8285 23.0965 98.8596 23.0965 98.922V99.67C23.0342 101.166 22.4731 102.444 21.4134 103.504C20.3536 104.501 19.0757 105 17.5795 105H11.6885C10.2547 105 9.00795 104.47 7.9482 103.41C6.88844 102.351 6.35856 101.104 6.35856 99.67V40.1988C6.35856 38.765 6.88844 37.5183 7.9482 36.4585C9.00795 35.3987 10.2547 34.8689 11.6885 34.8689H18.7951C20.2289 34.8689 21.4757 35.3987 22.5355 36.4585C23.5952 37.5183 24.1251 38.765 24.1251 40.1988V60.9576C24.1251 61.02 24.1563 61.0512 24.2186 61.0512C24.281 61.0512 24.3433 61.02 24.4056 60.9576C28.5823 57.2797 33.1642 55.4407 38.1513 55.4407ZM91.581 76.0125C92.1421 76.0125 92.4226 75.7319 92.4226 75.1709C92.3603 72.3033 91.7369 70.2461 90.5524 68.9993C89.4303 67.7526 87.716 67.1292 85.4095 67.1292C82.9783 67.1292 81.1393 67.7526 79.8925 68.9993C78.7081 70.1838 77.96 72.2721 77.6483 75.2644C77.6483 75.7631 77.8977 76.0125 78.3964 76.0125H91.581ZM84.942 55.4407C100.776 55.4407 108.724 63.7941 108.787 80.5009C108.787 81.997 108.225 83.2749 107.103 84.3347C105.981 85.3321 104.641 85.8308 103.083 85.8308H78.5834C78.0223 85.8308 77.8042 86.1113 77.9288 86.6724C78.4899 89.2906 79.7055 91.1296 81.5757 92.1894C83.5082 93.2491 86.5004 93.779 90.5524 93.779C93.1083 93.779 96.2253 93.405 99.9033 92.6569C101.212 92.3452 102.397 92.6258 103.457 93.4985C104.516 94.3089 105.046 95.3998 105.046 96.7713V98.2674C105.046 99.8259 104.548 101.26 103.55 102.569C102.615 103.816 101.399 104.564 99.9033 104.813C96.1006 105.561 92.0486 105.935 87.7472 105.935C78.8951 105.935 72.069 103.784 67.2689 99.483C62.5312 95.1193 60.1623 88.8543 60.1623 80.6879C60.1623 72.5838 62.2818 66.35 66.5208 61.9862C70.7599 57.6225 76.9002 55.4407 84.942 55.4407ZM147.993 58.2459C149.427 58.2459 150.674 58.7758 151.734 59.8355C152.794 60.8953 153.323 62.1421 153.323 63.5759V65.072C153.323 66.5058 152.794 67.7526 151.734 68.8123C150.674 69.8721 149.427 70.402 147.993 70.402H139.671C139.11 70.402 138.83 70.6825 138.83 71.2435V84.4282C138.83 88.1685 139.141 90.5062 139.765 91.4413C140.388 92.3764 141.791 92.8439 143.973 92.8439C144.845 92.8439 145.905 92.7504 147.152 92.5634C148.461 92.3764 149.645 92.7193 150.705 93.592C151.827 94.4024 152.388 95.4622 152.388 96.7713V99.2025C152.388 100.761 151.89 102.164 150.892 103.41C149.957 104.595 148.742 105.281 147.245 105.468C145.064 105.779 142.414 105.935 139.297 105.935C132.627 105.935 127.92 104.501 125.177 101.634C122.435 98.7661 121.063 93.6543 121.063 86.2984V71.2435C121.063 70.6825 120.783 70.402 120.222 70.402H116.575C115.141 70.402 113.894 69.8721 112.834 68.8123C111.775 67.7526 111.245 66.5058 111.245 65.072V63.5759C111.245 62.1421 111.775 60.8953 112.834 59.8355C113.894 58.7758 115.141 58.2459 116.575 58.2459H120.222C120.783 58.2459 121.063 57.9654 121.063 57.4043V45.8093C121.063 44.3755 121.593 43.1288 122.653 42.069C123.713 41.0092 124.959 40.4794 126.393 40.4794H133.5C134.934 40.4794 136.18 41.0092 137.24 42.069C138.3 43.1288 138.83 44.3755 138.83 45.8093V57.4043C138.83 57.9654 139.11 58.2459 139.671 58.2459H147.993ZM177.054 56.3757C178.488 56.3757 179.735 56.9056 180.794 57.9654C181.854 59.0251 182.384 60.2719 182.384 61.7057V99.67C182.384 101.104 181.854 102.351 180.794 103.41C179.735 104.47 178.488 105 177.054 105H169.012C167.579 105 166.332 104.47 165.272 103.41C164.212 102.351 163.682 101.104 163.682 99.67V61.7057C163.682 60.2719 164.212 59.0251 165.272 57.9654C166.332 56.9056 167.579 56.3757 169.012 56.3757H177.054ZM177.054 34.8689C178.488 34.8689 179.735 35.3987 180.794 36.4585C181.854 37.5183 182.384 38.765 182.384 40.1988V42.63C182.384 44.0638 181.854 45.3106 180.794 46.3704C179.735 47.4301 178.488 47.96 177.054 47.96H169.012C167.579 47.96 166.332 47.4301 165.272 46.3704C164.212 45.3106 163.682 44.0638 163.682 42.63V40.1988C163.682 38.765 164.212 37.5183 165.272 36.4585C166.332 35.3987 167.579 34.8689 169.012 34.8689H177.054ZM230.467 56.3757C231.901 56.3757 233.148 56.9056 234.207 57.9654C235.267 59.0251 235.797 60.2719 235.797 61.7057V63.2018C235.797 66.7552 234.644 69.8721 232.337 72.5527L215.319 92.5634C215.256 92.6258 215.225 92.6881 215.225 92.7504C215.225 92.8128 215.256 92.8439 215.319 92.8439H230.467C231.901 92.8439 233.148 93.3738 234.207 94.4336C235.267 95.4933 235.797 96.7401 235.797 98.1739V99.67C235.797 101.104 235.267 102.351 234.207 103.41C233.148 104.47 231.901 105 230.467 105H198.113C196.679 105 195.433 104.47 194.373 103.41C193.313 102.351 192.783 101.104 192.783 99.67V98.1739C192.783 94.6206 193.936 91.5037 196.243 88.8231L213.261 68.8123C213.324 68.75 213.355 68.6877 213.355 68.6253C213.355 68.563 213.324 68.5318 213.261 68.5318H198.113C196.679 68.5318 195.433 68.0019 194.373 66.9422C193.313 65.8824 192.783 64.6356 192.783 63.2018V61.7057C192.783 60.2719 193.313 59.0251 194.373 57.9654C195.433 56.9056 196.679 56.3757 198.113 56.3757H230.467ZM271.533 76.0125C272.094 76.0125 272.375 75.7319 272.375 75.1709C272.312 72.3033 271.689 70.2461 270.505 68.9993C269.382 67.7526 267.668 67.1292 265.362 67.1292C262.93 67.1292 261.091 67.7526 259.845 68.9993C258.66 70.1838 257.912 72.2721 257.6 75.2644C257.6 75.7631 257.85 76.0125 258.348 76.0125H271.533ZM264.894 55.4407C280.728 55.4407 288.676 63.7941 288.739 80.5009C288.739 81.997 288.178 83.2749 287.055 84.3347C285.933 85.3321 284.593 85.8308 283.035 85.8308H258.535C257.974 85.8308 257.756 86.1113 257.881 86.6724C258.442 89.2906 259.658 91.1296 261.528 92.1894C263.46 93.2491 266.453 93.779 270.505 93.779C273.06 93.779 276.177 93.405 279.855 92.6569C281.164 92.3452 282.349 92.6258 283.409 93.4985C284.468 94.3089 284.998 95.3998 284.998 96.7713V98.2674C284.998 99.8259 284.5 101.26 283.502 102.569C282.567 103.816 281.351 104.564 279.855 104.813C276.053 105.561 272.001 105.935 267.699 105.935C258.847 105.935 252.021 103.784 247.221 99.483C242.483 95.1193 240.114 88.8543 240.114 80.6879C240.114 72.5838 242.234 66.35 246.473 61.9862C250.712 57.6225 256.852 55.4407 264.894 55.4407ZM311.934 62.4538C315.799 57.7784 320.568 55.4407 326.241 55.4407C331.913 55.4407 335.965 57.0615 338.397 60.3031C340.89 63.5447 342.137 69.0929 342.137 76.9475V99.67C342.137 101.104 341.607 102.351 340.547 103.41C339.488 104.47 338.241 105 336.807 105H330.168C328.734 105 327.487 104.47 326.428 103.41C325.368 102.351 324.838 101.104 324.838 99.67V76.9475C324.838 74.08 324.433 72.1163 323.622 71.0565C322.812 69.9968 321.347 69.4669 319.227 69.4669C317.482 69.4669 315.861 70.1526 314.365 71.5241C312.931 72.8955 312.214 74.3917 312.214 76.0125V99.67C312.214 101.104 311.684 102.351 310.625 103.41C309.565 104.47 308.318 105 306.884 105H299.778C298.344 105 297.097 104.47 296.037 103.41C294.978 102.351 294.448 101.104 294.448 99.67V61.7057C294.448 60.2719 294.978 59.0251 296.037 57.9654C297.097 56.9056 298.344 56.3757 299.778 56.3757H306.136C307.632 56.3757 308.91 56.9056 309.97 57.9654C311.03 58.9628 311.591 60.2096 311.653 61.7057V62.4538C311.653 62.5161 311.684 62.5473 311.747 62.5473C311.871 62.5473 311.934 62.5161 311.934 62.4538Z" fill="black"/>
</svg>
